HIERARCHY
ROOT hip
{
	OFFSET 0.000000 0.000000 0.000000 
	CHANNELS 6 Xposition Yposition Zposition Xrotation Zrotation Yrotation
	JOINT abdomen
	{
		OFFSET 0.000000 3.402643 0.000000 
		CHANNELS 3 Xrotation Zrotation Yrotation
		JOINT chest
		{
			OFFSET 0.000000 8.438565 -0.680529 
			CHANNELS 3 Xrotation Zrotation Yrotation
			JOINT neck
			{
				OFFSET 0.000000 10.207942 -0.272212 
				CHANNELS 3 Xrotation Zrotation Yrotation
				JOINT head
				{
					OFFSET 0.000000 3.130431 0.000000 
					CHANNELS 3 Xrotation Zrotation Yrotation
					End Site
					{
						OFFSET 0.000000 3.130435 0.000000 
					}
				}
			}
			JOINT lCollar
			{
				OFFSET 3.470700 6.669187 -0.816635 
				CHANNELS 3 Yrotation Zrotation Xrotation
				JOINT lShldr
				{
					OFFSET 3.198488 0.000000 0.000000 
					CHANNELS 3 Zrotation Yrotation Xrotation
					JOINT lForeArm
					{
						OFFSET 10.139888 0.000000 0.000000 
						CHANNELS 3 Yrotation Zrotation Xrotation
						JOINT lHand
						{
							OFFSET 8.370511 0.000000 0.000000 
							CHANNELS 3 Zrotation Yrotation Xrotation
							End Site
							{
								OFFSET 4.083176 0.000000 0.000000 
							}
						}
					}
				}
			}
			JOINT rCollar
			{
				OFFSET -3.470700 6.669187 -0.816635 
				CHANNELS 3 Yrotation Zrotation Xrotation
				JOINT rShldr
				{
					OFFSET -3.198488 0.000000 0.000000 
					CHANNELS 3 Zrotation Yrotation Xrotation
					JOINT rForeArm
					{
						OFFSET -10.139888 0.000000 0.000000 
						CHANNELS 3 Yrotation Zrotation Xrotation
						JOINT rHand
						{
							OFFSET -8.370511 0.000000 0.000000 
							CHANNELS 3 Zrotation Yrotation Xrotation
							End Site
							{
								OFFSET -4.083176 0.000000 0.000000 
							}
						}
					}
				}
			}
		}
	}
	JOINT lThigh
	{
		OFFSET 5.308129 -1.633274 1.361059 
		CHANNELS 3 Xrotation Zrotation Yrotation
		JOINT lShin
		{
			OFFSET -2.041588 -20.007561 0.000000 
			CHANNELS 3 Xrotation Zrotation Yrotation
			JOINT lFoot
			{
				OFFSET 0.000000 -19.190928 -1.224953 
				CHANNELS 3 Xrotation Yrotation Zrotation
				End Site
				{
					OFFSET 0.000000 -2.449906 4.627600 
				}
			}
		}
	}
	JOINT rThigh
	{
		OFFSET -5.308129 -1.633274 1.361059 
		CHANNELS 3 Xrotation Zrotation Yrotation
		JOINT rShin
		{
			OFFSET 2.041588 -20.007561 0.000000 
			CHANNELS 3 Xrotation Zrotation Yrotation
			JOINT rFoot
			{
				OFFSET 0.000000 -19.190928 -1.224953 
				CHANNELS 3 Xrotation Yrotation Zrotation
				End Site
				{
					OFFSET 0.000000 -2.449906 4.627600 
				}
			}
		}
	}
}
MOTION
Frames: 8
Frame Time: 0.033333
1.076390 44.883110 -62.454956 5.625000 -4.580078 43.212502 25.830078 1.933594 -1.161780 -17.578125 -1.298828 -1.582031 -11.005859 1.591797 -19.716795 4.423828 1.591797 -19.579805 -0.566406 6.943371 0.223429 -76.455078 -27.490232 56.748051 -74.775391 -2.753906 -24.179216 4.482422 7.558594 0.323552 -5.117188 -0.283203 -0.048828 68.593750 17.802734 4.504941 89.277344 3.759766 -56.074223 -22.333984 5.703125 -2.206061 -18.735769 13.714629 17.335886 46.301155 -0.911530 -2.889986 -27.625435 11.778848 1.125401 -46.091576 -18.573208 -8.384141 56.486927 -0.380764 2.938682 -9.501637 -0.382993 4.842471 
1.275284 44.686123 -61.691097 5.253906 -4.394531 43.750004 25.312500 1.572266 -2.216529 -17.919922 -0.751953 -2.470831 -10.351563 1.464844 -18.994141 4.941406 1.933594 -18.857420 -0.566406 6.767590 0.223458 -76.503906 -28.808594 59.829273 -74.394531 -2.568359 -21.493704 3.574219 6.679820 0.196446 -5.283204 -0.283203 -0.039063 67.421875 11.630859 4.074234 92.714844 3.730469 -56.748390 -23.925781 7.812500 -3.436170 -17.730085 14.310311 16.127813 46.476780 -0.940830 -2.901615 -28.287779 12.079098 1.373725 -46.982613 -18.398670 -7.818785 59.844402 -0.564894 3.189511 -9.253224 -1.263651 4.443151 
1.483480 44.434406 -60.745872 4.746094 -4.238281 44.628181 24.941406 1.025391 -3.349610 -18.095701 -0.751953 -3.173956 -9.873047 1.699219 -18.320314 5.478516 2.109375 -18.310188 -0.205078 6.767582 0.174630 -76.630859 -30.898438 62.885605 -74.287109 -2.626953 -19.277346 2.304688 6.171875 -0.078125 -5.820313 -0.097656 -0.039063 65.839844 4.804688 3.994141 96.503906 3.779297 -57.100254 -26.171875 10.000001 -4.646739 -16.522760 15.057551 14.921428 46.654663 -0.801377 -2.844471 -28.722912 11.297120 1.339350 -48.322506 -18.463097 -7.530130 63.327274 -0.732450 3.223551 -9.222539 -2.324826 4.532768 
1.694179 44.122112 -59.656006 4.384766 -4.238281 45.332035 24.589844 0.507813 -4.472563 -18.632813 -0.585938 -4.062607 -9.189452 1.406250 -17.753668 6.181641 2.636719 -17.763540 0.302735 6.582038 0.291849 -77.363281 -33.466797 66.381332 -74.550781 -2.441406 -17.294924 0.869141 5.986328 -0.175781 -6.347656 -0.097656 -0.039046 64.306641 -3.144531 4.481888 100.478516 3.632813 -57.852180 -28.652344 11.455077 -6.003920 -15.124127 16.274239 14.434227 46.961926 -0.433185 -2.931753 -29.410740 10.754843 0.998512 -49.489269 -17.899088 -7.077997 66.489037 -1.074139 3.319174 -9.350042 -4.029167 4.077396 
1.916683 43.762955 -58.457634 3.857421 -4.052734 46.210938 24.218752 0.244141 -5.312455 -19.150389 -0.927734 -4.775549 -8.701172 0.917969 -17.187346 6.875000 3.349610 -17.216799 0.664063 6.582032 0.252787 -78.310547 -36.523434 70.058586 -74.814453 -2.412109 -15.067945 -0.546875 5.449219 -0.283203 -6.689453 -0.273443 -0.048781 63.359375 -11.054687 5.105551 103.652344 3.789063 -58.427734 -29.980467 11.689453 -6.365210 -13.562037 17.514565 13.275023 47.017067 -0.559914 -2.792966 -30.108561 10.348884 0.773803 -51.040871 -17.879232 -6.555728 67.902122 -0.907995 3.309426 -9.231591 -5.584887 3.934384 
2.130483 43.329876 -57.146221 3.681641 -3.876953 46.748047 24.218752 -0.019531 -6.152347 -19.687502 -1.289063 -5.302734 -8.720703 0.429688 -16.787109 7.763672 3.886719 -16.825510 1.181641 6.582031 0.194193 -79.335938 -39.912109 73.544922 -74.785156 -2.158203 -12.948851 -1.972656 4.550782 -0.380859 -7.031250 -1.162109 0.019729 63.457035 -17.871094 6.178645 105.742188 3.701172 -58.340477 -31.015623 12.031675 -6.872727 -11.598465 18.868275 13.243672 46.786339 -0.423327 -2.919146 -30.532780 10.042695 0.817502 -53.043079 -18.289614 -6.037492 67.892433 -0.898127 3.315395 -9.746893 -7.048222 3.600078 
2.339273 42.840508 -55.737141 3.339844 -3.691406 47.285156 24.189453 -0.175781 -6.767579 -19.863281 -1.630859 -6.015903 -9.277344 -0.224609 -16.210974 8.818359 4.228516 -16.259766 1.523438 6.777344 0.321113 -80.517578 -43.242191 75.881981 -74.648438 -2.207031 -11.112904 -3.896484 3.642578 -0.429065 -7.207031 -2.070312 0.088243 64.287117 -23.164063 7.935614 107.207031 3.681641 -56.856098 -33.544922 12.978517 -8.113040 -9.656596 20.578793 13.055913 46.632439 -0.615849 -3.155150 -30.981537 9.820684 0.924569 -55.019985 -18.828590 -5.403307 66.317009 -0.917286 3.092163 -10.072647 -7.543211 3.365277 
2.509669 42.299511 -54.243050 3.339844 -3.876953 47.430981 24.355469 -0.175781 -7.314484 -20.039064 -1.630859 -6.357422 -10.703125 -1.084018 -15.946972 9.863281 4.404297 -16.053938 2.226563 7.119140 0.213633 -82.041016 -46.777344 77.639366 -73.896484 -2.148437 -10.429687 -5.673828 2.734375 -0.517112 -7.568360 -2.939453 -0.039063 65.400383 -24.902346 9.199219 108.691406 3.750000 -55.215481 -36.464844 13.476563 -9.489909 -7.733686 22.368155 12.786685 46.114052 -0.901729 -2.924509 -31.215620 9.619164 0.812173 -57.358391 -19.490202 -4.247805 63.299721 -0.908300 3.292467 -9.678223 -7.890515 3.414772 
